<svg width="50" height="50" viewBox="0 0 50 50" fill="none" xmlns="http://www.w3.org/2000/svg">
<circle cx="25" cy="25" r="25" fill="white"/>
<path d="M31.5068 29.038C30.6901 28.2317 29.6704 28.2317 28.8588 29.038C28.2397 29.6519 27.6207 30.2657 27.012 30.89C26.8455 31.0617 26.705 31.0981 26.5021 30.9836C26.1016 30.7652 25.675 30.5883 25.29 30.349C23.4952 29.2201 21.9917 27.7687 20.6599 26.1351C19.9992 25.3236 19.4113 24.4548 19.0003 23.4768C18.9171 23.2791 18.9327 23.149 19.0939 22.9878C19.713 22.3895 20.3165 21.7756 20.9252 21.1618C21.7732 20.3086 21.7732 19.3098 20.92 18.4514C20.4362 17.9624 19.9523 17.4838 19.4685 16.9948C18.9691 16.4954 18.4749 15.9907 17.9702 15.4965C17.1534 14.7006 16.1338 14.7006 15.3222 15.5017C14.6979 16.1156 14.0996 16.7451 13.465 17.3485C12.8771 17.9052 12.5805 18.5867 12.5181 19.3826C12.4193 20.678 12.7366 21.9005 13.184 23.0918C14.0996 25.5577 15.4939 27.7478 17.1847 29.7559C19.4685 32.4715 22.1946 34.62 25.3836 36.1703C26.8195 36.8674 28.3074 37.4032 29.9253 37.4917C31.0386 37.5541 32.0063 37.2732 32.7814 36.4044C33.3121 35.8113 33.9104 35.2703 34.4722 34.7033C35.3046 33.8605 35.3098 32.8409 34.4826 32.0085C33.4942 31.0149 32.5005 30.0264 31.5068 29.038Z" fill="#323E66"/>
<path d="M30.5132 24.8918L32.4329 24.5641C32.1311 22.8005 31.2987 21.2034 30.0346 19.9341C28.6975 18.5971 27.0068 17.7543 25.1443 17.4942L24.8738 19.4242C26.3148 19.6271 27.6258 20.2774 28.6611 21.3127C29.6392 22.2907 30.2791 23.5288 30.5132 24.8918Z" fill="#323E66"/>
<path d="M33.5149 16.5474C31.2987 14.3312 28.4946 12.9318 25.3992 12.5L25.1287 14.43C27.8027 14.8046 30.227 16.0167 32.1415 17.926C33.9571 19.7415 35.1485 22.0357 35.5803 24.5588L37.4999 24.2311C36.9953 21.3074 35.6167 18.6543 33.5149 16.5474Z" fill="#323E66"/>
</svg>
