<svg width="50" height="50" viewBox="0 0 50 50" fill="none" xmlns="http://www.w3.org/2000/svg">
<circle cx="25" cy="25" r="25" fill="white"/>
<path d="M36.7561 27.6405C38.5647 19.5132 31.4447 12.1299 23.0832 13.5472C18.544 10.7302 12.5 13.9135 12.5 19.3144C12.5 20.5704 12.8465 21.7464 13.4491 22.7599C11.7684 30.906 18.9467 38.1831 27.3009 36.669C33.2065 39.792 39.7323 33.5638 36.7561 27.6405ZM28.8077 32.5419C26.6141 33.4441 23.0041 33.4493 20.8199 32.3056C17.7052 30.6448 17.1516 26.9058 19.8385 26.9058C21.8636 26.9058 21.2226 29.267 23.2674 30.2296C24.2061 30.6635 26.2239 30.7083 27.3966 29.9174C28.5549 29.1421 28.4487 27.9225 27.8191 27.3398C26.151 25.7996 21.3776 26.4115 19.1954 23.7152C18.2474 22.5456 18.0684 20.482 19.2339 18.9856C21.2652 16.3715 27.226 16.2123 29.7891 18.1864C32.1555 20.0179 31.5165 22.4488 29.6069 22.4488C27.3103 22.4488 28.5174 19.4434 24.8096 19.4434C22.1217 19.4434 21.0644 21.3551 22.9573 22.2854C25.5235 23.5602 32.0628 23.1346 32.0628 28.1161C32.0576 30.189 30.787 31.7343 28.8077 32.5419Z" fill="#323E66"/>
</svg>
