<svg width="50" height="50" viewBox="0 0 50 50" fill="none" xmlns="http://www.w3.org/2000/svg">
<path d="M50 25C50 38.8071 38.8071 50 25 50C11.1929 50 0 38.8071 0 25C0 11.1929 11.1929 0 25 0C38.8071 0 50 11.1929 50 25Z" fill="white"/>
<path d="M14.8995 20.5547C15.2157 20.7778 16.169 21.4406 17.7594 22.5427C19.3498 23.6447 20.5682 24.4933 21.4146 25.0884C21.5075 25.1537 21.7051 25.2955 22.0073 25.514C22.3096 25.7327 22.5607 25.9095 22.7606 26.0443C22.9606 26.1791 23.2024 26.3302 23.4862 26.4976C23.7699 26.6648 24.0373 26.7906 24.2884 26.8739C24.5396 26.9578 24.7721 26.9994 24.986 26.9994H25H25.014C25.2279 26.9994 25.4605 26.9578 25.7117 26.8739C25.9627 26.7906 26.2304 26.6647 26.5138 26.4976C26.7974 26.3301 27.0392 26.179 27.2392 26.0443C27.4392 25.9095 27.6902 25.7327 27.9925 25.514C28.2947 25.2953 28.4925 25.1537 28.5855 25.0884C29.441 24.4933 31.6175 22.9819 35.1144 20.5544C35.7933 20.0802 36.3605 19.5081 36.8162 18.8385C37.2722 18.1691 37.5 17.4669 37.5 16.7322C37.5 16.1183 37.2789 15.5927 36.8371 15.1557C36.3953 14.7185 35.8721 14.5 35.2678 14.5H14.732C14.0159 14.5 13.4649 14.7418 13.0789 15.2253C12.693 15.709 12.5 16.3135 12.5 17.0389C12.5 17.6248 12.7559 18.2598 13.2673 18.9433C13.7787 19.6269 14.323 20.1641 14.8995 20.5547Z" fill="#323E66"/>
<path d="M36.1047 22.0472C33.0544 24.1118 30.7383 25.7163 29.1574 26.8604C28.6273 27.2508 28.1972 27.5556 27.867 27.7741C27.5367 27.9926 27.0975 28.2158 26.5486 28.4436C26 28.6717 25.4887 28.7854 25.0142 28.7854H25H24.986C24.5117 28.7854 24.0001 28.6717 23.4514 28.4436C22.9028 28.2158 22.4633 27.9926 22.1331 27.7741C21.803 27.5556 21.3728 27.2508 20.8427 26.8604C19.5871 25.9397 17.2759 24.3351 13.9092 22.0472C13.3789 21.694 12.9092 21.2892 12.5 20.8336V31.9102C12.5 32.5244 12.7185 33.0497 13.1557 33.4868C13.5927 33.9241 14.1183 34.1427 14.7322 34.1427H35.268C35.8817 34.1427 36.4072 33.9241 36.8443 33.4868C37.2816 33.0495 37.5 32.5245 37.5 31.9102V20.8336C37.1 21.2798 36.6351 21.6846 36.1047 22.0472Z" fill="#323E66"/>
</svg>
