<svg width="50" height="50" viewBox="0 0 50 50" fill="none" xmlns="http://www.w3.org/2000/svg">
<circle cx="25" cy="25" r="25" fill="white"/>
<path d="M25.5031 12H25.4969C18.6047 12 13 17.6062 13 24.5C13 27.2344 13.8813 29.7687 15.3797 31.8266L13.8219 36.4703L18.6266 34.9344C20.6031 36.2438 22.9609 37 25.5031 37C32.3953 37 38 31.3922 38 24.5C38 17.6078 32.3953 12 25.5031 12ZM32.7766 29.6516C32.475 30.5031 31.2781 31.2094 30.3234 31.4156C29.6703 31.5547 28.8172 31.6656 25.9453 30.475C22.2719 28.9531 19.9062 25.2203 19.7219 24.9781C19.5453 24.7359 18.2375 23.0016 18.2375 21.2078C18.2375 19.4141 19.1484 18.5406 19.5156 18.1656C19.8172 17.8578 20.3156 17.7172 20.7937 17.7172C20.9484 17.7172 21.0875 17.725 21.2125 17.7312C21.5797 17.7469 21.7641 17.7688 22.0063 18.3484C22.3078 19.075 23.0422 20.8688 23.1297 21.0531C23.2188 21.2375 23.3078 21.4875 23.1828 21.7297C23.0656 21.9797 22.9625 22.0906 22.7781 22.3031C22.5938 22.5156 22.4187 22.6781 22.2344 22.9062C22.0656 23.1047 21.875 23.3172 22.0875 23.6844C22.3 24.0437 23.0344 25.2422 24.1156 26.2047C25.5109 27.4469 26.6422 27.8438 27.0469 28.0125C27.3484 28.1375 27.7078 28.1078 27.9281 27.8734C28.2078 27.5719 28.5531 27.0719 28.9047 26.5797C29.1547 26.2266 29.4703 26.1828 29.8016 26.3078C30.1391 26.425 31.925 27.3078 32.2922 27.4906C32.6594 27.675 32.9016 27.7625 32.9906 27.9172C33.0781 28.0719 33.0781 28.7984 32.7766 29.6516Z" fill="#323E66"/>
</svg>
