<svg width="100" height="24" viewBox="0 0 100 24" fill="none" xmlns="http://www.w3.org/2000/svg">
<g clip-path="url(#clip0_1_7)">
<path d="M33.9139 1.29224H28.3401V2.44095L30.2458 2.95377C30.2458 2.95377 26.8032 13.2307 25.3483 17.4358C24.6516 19.4666 23.3196 20.4307 21.7213 20.841C21.7213 21.0051 21.7213 21.2102 21.7213 21.3948C24.1598 21.3948 26.7417 20.2461 27.7663 17.3948C28.1762 16.2461 28.586 14.9948 28.586 14.9948H34.918L36.3114 19.0563H39.8565L33.9139 1.29224ZM29.3647 12.7179L31.6393 5.8666H31.8852L34.1803 12.7179H29.3647Z" fill="#4C5556"/>
<path d="M15.3689 16.882C14.9795 16.8 14.4877 16.6359 14.1189 16.4718C13.75 16.2871 13.4426 16.041 13.1558 15.7333C12.8689 15.4256 12.2746 14.6666 12.2746 14.1948L20.3689 12.4512L20.3894 12.0205C20.3894 11.2 20.2459 10.4205 19.9385 9.70252C19.6517 8.98457 19.2418 8.36919 18.7295 7.85637C18.2172 7.32303 17.6025 6.91278 16.9263 6.6256C16.2295 6.33842 15.4918 6.17432 14.6926 6.17432C13.9345 6.17432 13.2172 6.31791 12.541 6.6256C11.8648 6.93329 11.2705 7.34355 10.7582 7.89739C10.2459 8.43073 9.85659 9.08714 9.54921 9.86662C9.26232 10.6461 9.09839 11.4871 9.09839 12.3897C9.09839 13.3128 9.24183 14.1538 9.54921 14.9128C9.83609 15.6923 10.2459 16.3487 10.7787 16.882C11.3115 17.4153 11.9263 17.8461 12.623 18.1538C13.3402 18.4615 14.0984 18.5641 14.9385 18.6051C16.6599 18.4615 17.9508 18.2974 18.9549 18.1948C18.9549 17.8461 18.9549 17.0666 18.9549 16.8C17.9304 16.8205 16.4754 16.882 15.3689 16.882ZM12.2336 10.4C12.2951 10.1128 12.4386 9.59996 12.5205 9.37432C12.6025 9.12816 12.7664 8.8615 12.9099 8.71791C13.0533 8.61534 13.2377 8.53329 13.4222 8.47175C13.5656 8.41021 13.75 8.34868 13.9754 8.28714C14.2008 8.24611 14.4263 8.20509 14.6926 8.20509C15.0205 8.20509 15.3279 8.28714 15.6353 8.43073C15.9426 8.57432 16.209 8.79996 16.4549 9.04611C16.7008 9.31278 16.8853 9.62047 17.0287 9.96919C17.1722 10.3179 17.2541 10.7077 17.2541 11.1179L12.1517 12.1846C12.0492 11.5897 12.1926 10.7077 12.2336 10.4Z" fill="#4C5556"/>
<path d="M72.1312 16.882C71.7418 16.8 71.25 16.6359 70.8812 16.4718C70.5123 16.2871 70.205 16.041 69.9181 15.7333C69.6312 15.4256 69.0369 14.6666 69.0369 14.1948L77.1312 12.4512L77.1517 12.0205C77.1517 11.2 77.0082 10.4205 76.7009 9.70252C76.414 8.98457 76.0041 8.36919 75.4918 7.85637C74.9796 7.32303 74.3648 6.91278 73.6886 6.6256C72.9918 6.33842 72.2541 6.17432 71.455 6.17432C70.6968 6.17432 69.9796 6.31791 69.3033 6.6256C68.6271 6.93329 68.0328 7.34355 67.5205 7.89739C67.0082 8.43073 66.6189 9.08714 66.3115 9.86662C66.0246 10.6461 65.8607 11.4871 65.8607 12.3897C65.8607 13.3128 66.0041 14.1538 66.3115 14.9128C66.5984 15.6923 67.0082 16.3487 67.541 16.882C68.0738 17.4153 68.6886 17.8461 69.3853 18.1538C70.1025 18.4615 70.8607 18.5641 71.7009 18.6051C73.4222 18.4615 74.7132 18.2974 75.7173 18.1948C75.7173 17.8461 75.7173 17.0666 75.7173 16.8C74.6927 16.8205 73.2377 16.882 72.1312 16.882ZM68.9959 10.4C69.0574 10.1128 69.2009 9.59996 69.2828 9.37432C69.3648 9.12816 69.5287 8.8615 69.6722 8.71791C69.8156 8.61534 70 8.53329 70.1845 8.47175C70.3279 8.41021 70.5123 8.34868 70.7377 8.28714C70.9632 8.24611 71.1886 8.20509 71.455 8.20509C71.7828 8.20509 72.0902 8.28714 72.3976 8.43073C72.705 8.57432 72.9714 8.79996 73.2173 9.04611C73.4632 9.31278 73.6476 9.62047 73.791 9.96919C73.9345 10.3179 74.0164 10.7077 74.0164 11.1179L68.914 12.1846C68.8115 11.5897 68.955 10.7077 68.9959 10.4Z" fill="#4C5556"/>
<path fill-rule="evenodd" clip-rule="evenodd" d="M27.3769 6.60515C27.3564 6.58464 27.3564 6.56413 27.3359 6.54361L26.3318 4.55387C26.2294 4.34874 26.0449 4.34874 25.9425 4.55387L24.9384 6.54361C24.8359 6.74874 24.549 6.95387 24.3236 6.99489L22.1105 7.34361C21.8851 7.38464 21.8236 7.54874 21.9875 7.71284L23.5654 9.29233C23.7294 9.45643 23.8318 9.78464 23.8113 10.0308L23.463 12.2462C23.422 12.4718 23.5654 12.5949 23.7703 12.4718L25.758 11.4667L27.3769 6.60515Z" fill="#49ACB0"/>
<path d="M82.418 18.3384H79.3852V2.09229L77.8688 1.57947V0.574341H82.4385V11.8769H83.9549L86.6188 6.93331H88.8934V8.94357L86.2295 11.8974H87.2541C87.4795 12.759 87.7459 13.6 88.0942 14.3795C88.4221 15.1795 88.7705 15.8769 89.0983 16.4923C89.4877 17.2102 89.877 17.8666 90.2868 18.5025L89.4057 19.3846C88.75 18.9743 88.1147 18.5025 87.5 17.9282C86.9672 17.4564 86.4344 16.882 85.8811 16.2051C85.3278 15.5282 84.8565 14.7692 84.4672 13.9077H82.4385V18.3384H82.418Z" fill="#4C5556"/>
<path d="M9.24174 6.66675C8.3606 6.66675 6.86469 6.66675 6.86469 6.66675C6.47535 6.66675 6.14748 6.7488 5.8401 6.9129C5.55322 7.077 5.30732 7.24111 5.12289 7.42572C4.89748 7.65136 4.71305 7.89752 4.56961 8.1847H4.32371L4.07781 6.9129H-6.10352e-05V7.91803L1.51633 8.43085V18.3385H4.54912V10.2155C4.69256 9.96931 4.89748 9.76418 5.1024 9.57957C5.28682 9.43598 5.53273 9.29239 5.81961 9.1488C6.1065 9.00521 6.45486 8.94367 6.8442 8.94367H7.99174C7.99174 8.94367 8.40158 7.83598 9.22125 7.01547L9.24174 6.66675Z" fill="#4C5556"/>
<path d="M48.5861 12.4102C48.1557 12.123 47.6844 11.8769 47.1721 11.6923C46.6598 11.5076 46.1885 11.323 45.7582 11.1794C45.3279 11.0153 44.959 10.8512 44.6721 10.6666C44.3853 10.482 44.2418 10.2564 44.2418 9.9897C44.2418 9.59995 44.3648 9.29226 44.5902 9.06662C44.8156 8.84098 45.123 8.7179 45.5123 8.7179H48.3812L49.9385 7.13842V6.68713H45.5123C44.7951 6.68713 44.1394 6.76919 43.5861 6.9538C43.0328 7.13842 42.5615 7.36406 42.1926 7.67175C41.8238 7.97944 41.5369 8.32816 41.3525 8.7179C41.168 9.10765 41.0656 9.53842 41.0656 9.96918C41.0656 10.6051 41.209 11.1384 41.4959 11.5487C41.7828 11.9589 42.1517 12.3076 42.582 12.5948C43.0123 12.882 43.4836 13.1282 43.9959 13.3128C44.5082 13.4974 44.9795 13.682 45.4098 13.8256C45.8402 13.9897 46.209 14.1538 46.4959 14.3384C46.7828 14.523 46.9262 14.7487 46.9262 15.0153C46.9262 15.241 46.8853 15.4461 46.7828 15.6717C46.6803 15.8769 46.5369 16.082 46.3525 16.2461C46.168 16.4102 45.9426 16.5538 45.6967 16.6564C45.4508 16.7589 45.1844 16.8 44.8976 16.8C43.9959 16.8 43.2787 16.5538 42.7459 16.0615C42.2131 15.5692 41.8648 14.9743 41.7418 14.2564H40.3484C40.3894 14.8923 40.5328 15.4871 40.7787 16.041C41.0246 16.5948 41.373 17.0666 41.8238 17.4974C42.2541 17.9076 42.7869 18.2359 43.3607 18.482C43.9549 18.7282 44.5902 18.8307 45.2869 18.8307C46.0041 18.8307 46.6803 18.7282 47.2746 18.5025C47.8689 18.2769 48.3812 17.9897 48.791 17.641C49.2008 17.2923 49.5492 16.882 49.7746 16.4307C50 15.9794 50.123 15.5076 50.123 15.0359C50.123 14.4 49.9795 13.8871 49.6926 13.4564C49.3648 13.0461 49.0164 12.6974 48.5861 12.4102Z" fill="#4C5556"/>
<path d="M63.5655 9.68194C63.3196 9.00502 62.9713 8.41015 62.5614 7.93835C62.1516 7.44605 61.6598 7.07682 61.1065 6.83066C60.5532 6.56399 59.9795 6.44092 59.3647 6.44092C58.7909 6.44092 58.2991 6.54348 57.8893 6.7281C57.4794 6.91271 57.1311 7.11784 56.8647 7.34348C56.5573 7.61015 56.2909 7.91784 56.086 8.22553H55.8401L55.5942 6.74861H51.5368V7.34348L53.0532 8.88194V23.446H56.086V21.9281V18.4819L61.4139 17.0666C62.1721 16.5127 63.2991 14.9332 63.5655 14.2563C63.8319 13.5794 63.9549 12.8409 63.9549 11.9999C63.9344 11.1384 63.8114 10.3589 63.5655 9.68194ZM60.5737 13.4768C60.4508 13.9486 60.1844 14.9537 59.6311 15.5281L56.086 16.5743V9.96912C56.2294 9.72297 56.4344 9.51784 56.6393 9.33323C56.8237 9.18964 57.0696 9.04605 57.3565 8.90246C57.6434 8.75887 57.9917 8.69733 58.3811 8.69733C59.0983 8.69733 59.6721 8.964 60.1229 9.47682C60.5737 10.0101 60.7991 10.8307 60.7991 11.9999C60.7581 12.5127 60.6967 13.005 60.5737 13.4768Z" fill="#4C5556"/>
<path d="M99.0165 16.4717C98.3608 16.7179 98.1149 16.8204 97.2337 16.8204C96.8034 16.8204 96.4345 16.6768 96.1477 16.3691C95.8608 16.082 95.7173 15.6717 95.7173 15.1589V8.9435H98.5657V6.91273H95.6968V2.8512H94.4468L92.9304 6.91273H91.1477V8.9435H92.6641V15.1794C92.6641 15.6922 92.7665 16.164 92.9509 16.6153C93.1354 17.0666 93.4018 17.4563 93.7501 17.7845C94.0985 18.1127 94.4878 18.3794 94.9591 18.564C95.4304 18.7486 95.9222 18.8512 96.4755 18.8512C97.828 18.8512 98.5657 18.6256 99.4673 18.0102L99.0165 16.4717Z" fill="#4C5556"/>
</g>
<defs>
<clipPath id="clip0_1_7">
<rect width="100" height="24" fill="white"/>
</clipPath>
</defs>
</svg>
